<svg width="39" height="36" viewBox="0 0 39 36" fill="none" xmlns="http://www.w3.org/2000/svg">
<path d="M36.9601 6.06937L35.9212 4.81359C35.5504 4.36755 35.0737 4.00593 34.5278 3.75654C33.9819 3.50715 33.3813 3.37663 32.7722 3.375H31.3828C31.3535 3.37519 31.3243 3.37898 31.296 3.38625C29.2516 3.94872 27.4504 5.08997 26.1468 6.64875L25.8726 6.975C25.8567 6.99328 25.8438 7.01367 25.8345 7.03547C25.638 7.45172 23.9348 11.1403 24.4878 12.503C24.9768 13.7039 25.7614 14.8247 26.456 15.6727C21.7791 18.682 24.2105 23.2284 25.0164 24.7345C25.1452 24.972 25.2253 25.2295 25.2525 25.4939C23.8479 25.2014 21.9771 25.0397 20.6015 25.7653C18.7078 26.7638 15.37 27.135 14.3203 27.2306V23.9091C14.3207 23.8929 14.3186 23.8769 14.3143 23.8612C14.305 23.8036 14.2756 23.7502 14.2305 23.7094L10.5727 20.333C10.5443 20.3067 10.5106 20.2858 10.4735 20.2716C10.4364 20.2574 10.3966 20.25 10.3564 20.25H5.18277C5.14257 20.25 5.10277 20.2574 5.06565 20.2716C5.02853 20.2858 4.99481 20.3067 4.96644 20.333L1.30866 23.7094C1.26357 23.7502 1.23415 23.8036 1.22488 23.8612C1.22051 23.8769 1.21846 23.8929 1.21878 23.9091V28.7016C1.21896 28.7762 1.25065 28.8478 1.30714 28.9013L4.96644 32.2847C4.99481 32.311 5.02853 32.3318 5.06565 32.3461C5.10277 32.3603 5.14257 32.3676 5.18277 32.3677H10.3564C10.3966 32.3676 10.4364 32.3603 10.4735 32.3461C10.5106 32.3318 10.5443 32.311 10.5727 32.2847L12.3643 30.6281C13.0559 30.8152 18.1457 32.1806 20.3669 32.5364C20.8515 32.6025 21.3411 32.6321 21.8309 32.625C24.7209 32.625 29.3216 31.9528 29.5547 31.9191C29.6049 31.9115 29.6522 31.8925 29.6924 31.8638C29.7326 31.835 29.7643 31.7975 29.7848 31.7545C30.0711 31.1303 30.2742 30.4763 30.3896 29.8069C30.5556 29.0095 30.6988 28.3205 31.3874 27.4064C37.2344 19.6523 35.8069 14.2256 35.6058 13.5759C35.9699 13.2483 36.3432 12.9192 36.7088 12.6056C37.7691 11.662 37.7813 10.3205 37.7813 10.2642V8.28703C37.7758 7.48511 37.4875 6.70665 36.9601 6.06937ZM10.2299 20.8125L13.711 24.0314V28.568L10.2299 31.7812H5.30921L1.82816 28.568V24.0314L5.30921 20.8125H10.2299ZM37.1719 10.2642C37.1719 10.2755 37.1612 11.4202 36.2898 12.1978C35.8618 12.5634 35.4245 12.953 35.0025 13.3355C33.5416 14.6573 32.2725 15.9061 32.2558 15.9216C32.2004 15.976 32.1708 16.0485 32.1733 16.1232C32.1759 16.1978 32.2105 16.2684 32.2695 16.3195C32.3285 16.3706 32.407 16.398 32.4879 16.3956C32.5687 16.3933 32.6453 16.3613 32.7006 16.3069C32.7143 16.2914 33.7884 15.2353 35.0939 14.04C35.3758 15.3689 35.9562 20.3625 30.8877 27.0858C30.1245 28.0983 29.963 28.8759 29.7909 29.7C29.6898 30.2773 29.5223 30.843 29.2912 31.3875C28.243 31.5352 22.5362 32.3128 20.4705 31.9823C18.525 31.6702 14.1832 30.5283 12.8563 30.1739L14.232 28.9013C14.2885 28.8478 14.3202 28.7762 14.3203 28.7016V27.7959C15.3441 27.7088 18.8465 27.3389 20.9046 26.2533C22.2239 25.5572 24.1587 25.8145 25.4917 26.1295C26.0044 26.2504 26.5086 26.4002 27.0014 26.5781C27.075 26.6022 27.1558 26.5994 27.2271 26.5701C27.2985 26.5408 27.3549 26.4874 27.3848 26.4208C27.4147 26.3542 27.4158 26.2796 27.3879 26.2123C27.3599 26.145 27.305 26.0902 27.2345 26.0592C26.7887 25.8945 26.3329 25.7536 25.8695 25.6373C25.8641 25.2363 25.7588 24.8417 25.5618 24.4842C24.2638 22.0584 22.9933 18.5625 26.8323 16.1156C27.4128 16.7808 27.8652 17.2012 27.9079 17.2406C27.936 17.2668 27.9695 17.2876 28.0063 17.3019C28.0432 17.3161 28.0827 17.3235 28.1227 17.3236C28.2038 17.3231 28.2815 17.2934 28.339 17.2406C28.3673 17.2145 28.3898 17.1835 28.4052 17.1493C28.4205 17.1152 28.4284 17.0786 28.4284 17.0416C28.4284 17.0047 28.4205 16.9681 28.4052 16.9339C28.3898 16.8998 28.3673 16.8688 28.339 16.8427C28.3162 16.8216 26.0295 14.6939 25.0591 12.3047C24.666 11.34 25.8634 8.39109 26.3768 7.29141L26.6282 6.99328C27.8449 5.53842 29.5229 4.47019 31.4285 3.9375H32.7722C33.2877 3.93884 33.7959 4.04933 34.2578 4.26046C34.7198 4.47158 35.1231 4.77772 35.4367 5.15531L36.4757 6.41109C36.9228 6.94979 37.1672 7.60844 37.1719 8.28703V10.2642Z" fill="#969EA0"/>
<path d="M31.1512 17.7791C31.1116 17.7845 31.0735 17.797 31.0391 17.8159C31.0047 17.8348 30.9747 17.8598 30.9508 17.8895C30.9269 17.9191 30.9096 17.9528 30.8998 17.9887C30.89 18.0245 30.8879 18.0618 30.8938 18.0984C31.3523 21.0655 29.2759 23.8823 29.2546 23.9104C29.2232 23.9527 29.2049 24.0021 29.2017 24.0533C29.1985 24.1046 29.2104 24.1556 29.2363 24.201C29.2621 24.2464 29.3009 24.2844 29.3484 24.311C29.3959 24.3376 29.4504 24.3518 29.5059 24.3519C29.5553 24.3521 29.6039 24.341 29.6475 24.3197C29.691 24.2983 29.7282 24.2674 29.7558 24.2296C29.8472 24.1087 31.9891 21.2076 31.4955 18.0182C31.4842 17.9444 31.4416 17.8777 31.377 17.8329C31.3124 17.788 31.2312 17.7687 31.1512 17.7791Z" fill="#969EA0"/>
<path d="M8.7204 18.8761C8.77603 18.876 8.83156 18.8718 8.88646 18.8634C9.066 18.8355 9.23282 18.7598 9.36648 18.6456C9.50015 18.5315 9.59486 18.3838 9.63903 18.2208C9.64056 18.218 9.64056 18.2166 9.64208 18.2152C10.2321 16.1796 11.3721 14.3156 12.9553 12.7976C14.5385 11.2796 16.5132 10.1573 18.6943 9.53578L18.8391 10.1883C18.8643 10.285 18.9169 10.3739 18.9914 10.4457C19.066 10.5176 19.1598 10.5699 19.2634 10.5974C19.3671 10.6248 19.4767 10.6264 19.5812 10.602C19.6857 10.5775 19.7813 10.528 19.8583 10.4583L22.378 8.10985C22.495 8.00805 22.5808 7.87955 22.6267 7.73733C22.6725 7.59511 22.6769 7.44422 22.6394 7.29994C22.6018 7.15565 22.5236 7.02308 22.4127 6.91565C22.3018 6.80822 22.1621 6.72973 22.0078 6.68813L18.6669 5.77547C18.5645 5.7472 18.4558 5.74436 18.3518 5.76726C18.2478 5.79015 18.1522 5.83795 18.0747 5.90585C17.9971 5.97375 17.9403 6.05933 17.91 6.15397C17.8797 6.2486 17.877 6.34894 17.9022 6.44485L18.0774 7.11844C14.2809 8.32381 11.1214 10.8141 9.23685 14.0864C8.56455 15.2556 8.07035 16.5049 7.76825 17.7989C7.7361 17.9403 7.74148 18.0868 7.78392 18.2259C7.82636 18.365 7.90462 18.4925 8.012 18.5977C8.10286 18.6867 8.21271 18.7574 8.33463 18.8053C8.45655 18.8532 8.5879 18.8773 8.7204 18.8761Z" fill="#969EA0"/>
<path d="M5.72355 30.5733C5.75193 30.5996 5.78564 30.6204 5.82276 30.6347C5.85989 30.6489 5.89969 30.6562 5.93988 30.6562H9.59918C9.63938 30.6562 9.67918 30.6489 9.7163 30.6347C9.75342 30.6204 9.78713 30.5996 9.81551 30.5733L12.4023 28.1855C12.4308 28.1593 12.4534 28.1282 12.4688 28.0939C12.4842 28.0596 12.4922 28.0229 12.4922 27.9858V24.608C12.4922 24.5709 12.4842 24.5341 12.4688 24.4999C12.4534 24.4656 12.4308 24.4345 12.4023 24.4083L9.81551 22.0205C9.78713 21.9942 9.75342 21.9733 9.7163 21.9591C9.67918 21.9449 9.63938 21.9375 9.59918 21.9375H5.93988C5.89969 21.9375 5.85989 21.9449 5.82276 21.9591C5.78564 21.9733 5.75193 21.9942 5.72355 22.0205L3.13676 24.4083C3.10828 24.4345 3.08569 24.4656 3.07027 24.4999C3.05484 24.5341 3.04689 24.5709 3.04688 24.608V27.9858C3.04689 28.0229 3.05484 28.0596 3.07027 28.0939C3.08569 28.1282 3.10828 28.1593 3.13676 28.1855L5.72355 30.5733ZM5.78906 26.2969C5.78878 25.8736 5.94751 25.4634 6.2382 25.136C6.52889 24.8087 6.93356 24.5846 7.38323 24.5018C7.83291 24.419 8.29976 24.4828 8.70423 24.6821C9.1087 24.8815 9.42575 25.2042 9.60135 25.5952C9.77696 25.9862 9.80024 26.4213 9.66724 26.8263C9.53424 27.2314 9.25319 27.5813 8.87198 27.8165C8.49077 28.0517 8.03299 28.1576 7.57667 28.1162C7.12035 28.0747 6.69372 27.8885 6.36949 27.5892C6.1848 27.4201 6.03838 27.2187 5.93873 26.9968C5.83909 26.775 5.78821 26.537 5.78906 26.2969Z" fill="#969EA0"/>
</svg>
