<svg width="62" height="66" viewBox="0 0 62 66" fill="none" xmlns="http://www.w3.org/2000/svg">
<path d="M49.8131 19.1606L38.1881 6.78562C38.0063 6.59463 37.7883 6.44699 37.5487 6.3525C37.3158 6.24682 37.0657 6.19076 36.8125 6.1875H13.5625C13.0486 6.1875 12.5558 6.4048 12.1925 6.79159C11.8291 7.17839 11.625 7.70299 11.625 8.25V57.75C11.625 58.297 11.8291 58.8216 12.1925 59.2084C12.5558 59.5952 13.0486 59.8125 13.5625 59.8125H48.4375C48.9514 59.8125 49.4442 59.5952 49.8075 59.2084C50.1709 58.8216 50.375 58.297 50.375 57.75V20.625C50.3765 20.3536 50.3276 20.0845 50.2312 19.8332C50.1348 19.5819 49.9927 19.3533 49.8131 19.1606ZM38.75 13.2206L45.7056 20.625H38.75V13.2206ZM15.5 55.6875V10.3125H34.875V22.6875C34.875 23.2345 35.0791 23.7591 35.4425 24.1459C35.8058 24.5327 36.2986 24.75 36.8125 24.75H46.5V55.6875H15.5Z" fill="#969EA0"/>
<path d="M40.6875 28.875H21.3125C20.7986 28.875 20.3058 29.0923 19.9425 29.4791C19.5791 29.8659 19.375 30.3905 19.375 30.9375C19.375 31.4845 19.5791 32.0091 19.9425 32.3959C20.3058 32.7827 20.7986 33 21.3125 33H40.6875C41.2014 33 41.6942 32.7827 42.0575 32.3959C42.4209 32.0091 42.625 31.4845 42.625 30.9375C42.625 30.3905 42.4209 29.8659 42.0575 29.4791C41.6942 29.0923 41.2014 28.875 40.6875 28.875Z" fill="#969EA0"/>
<path d="M40.6875 37.125H21.3125C20.7986 37.125 20.3058 37.3423 19.9425 37.7291C19.5791 38.1159 19.375 38.6405 19.375 39.1875C19.375 39.7345 19.5791 40.2591 19.9425 40.6459C20.3058 41.0327 20.7986 41.25 21.3125 41.25H40.6875C41.2014 41.25 41.6942 41.0327 42.0575 40.6459C42.4209 40.2591 42.625 39.7345 42.625 39.1875C42.625 38.6405 42.4209 38.1159 42.0575 37.7291C41.6942 37.3423 41.2014 37.125 40.6875 37.125Z" fill="#969EA0"/>
<path d="M40.6875 45.375H21.3125C20.7986 45.375 20.3058 45.5923 19.9425 45.9791C19.5791 46.3659 19.375 46.8905 19.375 47.4375C19.375 47.9845 19.5791 48.5091 19.9425 48.8959C20.3058 49.2827 20.7986 49.5 21.3125 49.5H40.6875C41.2014 49.5 41.6942 49.2827 42.0575 48.8959C42.4209 48.5091 42.625 47.9845 42.625 47.4375C42.625 46.8905 42.4209 46.3659 42.0575 45.9791C41.6942 45.5923 41.2014 45.375 40.6875 45.375Z" fill="#969EA0"/>
</svg>
