<svg width="39" height="39" viewBox="0 0 39 39" fill="none" xmlns="http://www.w3.org/2000/svg">
<path d="M34.0595 31.0888L28.2918 30.5846C28.252 30.5805 28.2118 30.5845 28.1736 30.5963C28.1353 30.6081 28.0998 30.6274 28.0692 30.6531C28.0385 30.6788 28.0133 30.7103 27.995 30.7459C27.9767 30.7815 27.9658 30.8204 27.9627 30.8603L27.9369 31.165L20.5192 30.516L18.7703 30.3621L11.4517 29.7223L11.4792 29.4176C11.4861 29.337 11.4608 29.257 11.4088 29.195C11.3569 29.1331 11.2824 29.0942 11.2019 29.087L10.8043 29.052C10.798 29.0257 10.7877 29.0005 10.7738 28.9773C8.14892 24.4817 7.9722 21.2124 8.28603 19.2624C8.41188 18.4342 8.67553 17.633 9.06603 16.8919C9.19931 16.6409 9.35319 16.4014 9.52611 16.1759L18.1655 19.3705C18.2094 19.387 18.2565 19.3931 18.3031 19.3882C18.3497 19.3834 18.3946 19.3678 18.4342 19.3427C18.4737 19.3176 18.507 19.2837 18.5312 19.2436C18.5554 19.2034 18.57 19.1583 18.5738 19.1115L18.6987 17.6795C18.7038 17.6225 18.6926 17.5652 18.6664 17.5142C18.6403 17.4633 18.6002 17.4207 18.551 17.3916L12.5088 13.8176L9.26392 6.85549C9.22912 6.78245 9.16744 6.72569 9.09178 6.69705C9.01568 6.66999 8.932 6.67382 8.85869 6.70772L7.75435 7.22264C7.68097 7.25698 7.62406 7.31882 7.59591 7.39479C7.58214 7.4324 7.57599 7.47238 7.57782 7.5124C7.57965 7.55242 7.58943 7.59167 7.60658 7.62787L9.12392 10.8819C8.57244 11.3055 7.20287 12.6857 6.90732 16.1241C6.90295 16.1707 6.90974 16.2177 6.92712 16.2612C4.65415 19.4056 3.92443 22.1264 3.76294 24.0521C3.54966 26.5916 4.23216 28.2567 4.42564 28.6711C3.89343 28.8216 3.41958 29.1304 3.06695 29.5565C2.71433 29.9826 2.4996 30.5059 2.45126 31.0568L2.44822 31.0903C2.40584 31.5783 2.49566 32.0686 2.70823 32.5099C2.92081 32.9511 3.2483 33.327 3.6563 33.5979V36.2578C3.65654 36.3386 3.68872 36.4159 3.74581 36.473C3.8029 36.5301 3.88026 36.5623 3.96099 36.5625H34.1251C34.1756 36.5623 34.2253 36.5498 34.2698 36.526C34.2702 36.526 34.2706 36.5258 34.2709 36.5255C34.2711 36.5252 34.2713 36.5248 34.2713 36.5244C34.8706 36.4238 35.4196 36.1272 35.8322 35.6812C36.2449 35.2351 36.498 34.6648 36.5519 34.0595C36.5595 33.9788 36.5626 33.8996 36.5626 33.8188C36.5615 33.1334 36.3041 32.4732 35.8409 31.968C35.3777 31.4628 34.7423 31.1492 34.0595 31.0888ZM20.1915 31.098L27.8834 31.7713L27.6168 34.8075L11.1332 33.3648L11.3998 30.3286L20.1915 31.098ZM18.0024 18.6606L9.51224 15.5208L8.5601 15.1689C9.09177 14.5428 9.68744 13.9029 10.3562 13.2509L12.1097 14.2883L18.0755 17.8181L18.0024 18.6606ZM3.05439 31.1437L3.05744 31.1101C3.09932 30.6415 3.29582 30.2001 3.616 29.8554C3.93619 29.5107 4.3619 29.2822 4.82615 29.2058C4.93794 29.1875 5.05106 29.1783 5.16435 29.1784C5.22529 29.1784 5.28775 29.1815 5.35021 29.186L10.8453 29.6674L10.8178 29.9737L10.4994 33.6162L10.4735 33.9163L4.97849 33.4364C4.69457 33.4122 4.41868 33.3297 4.16803 33.1942C3.80211 32.9989 3.50156 32.7005 3.3036 32.336C3.10565 31.9715 3.019 31.5569 3.05439 31.1437ZM35.9454 34.0062C35.8978 34.5373 35.6534 35.0314 35.2603 35.3916C34.8671 35.7518 34.3536 35.9521 33.8204 35.9531C33.7594 35.9531 33.697 35.9516 33.6345 35.9455L28.1715 35.4672L28.1974 35.164L28.5158 31.5215L28.5188 31.494L28.5432 31.2183L34.0062 31.6951C34.5696 31.7452 35.0901 32.0165 35.4536 32.4498C35.8172 32.883 35.9939 33.4427 35.9454 34.0062Z" fill="#969EA0"/>
<path d="M32.0456 24.1069L31.1818 20.5542C31.1722 20.5152 31.1551 20.4784 31.1313 20.446C31.1075 20.4136 31.0775 20.3862 31.0432 20.3653C31.0091 20.3443 30.9712 20.3304 30.9317 20.3244C30.8922 20.3184 30.8518 20.3204 30.8131 20.3303L29.925 20.5466C29.8666 20.5604 29.8136 20.5912 29.7726 20.635L29.3994 21.0387C29.3914 21.0477 29.3843 21.0573 29.378 21.0676L27.0319 21.3341L26.9961 21.3403L26.204 21.5246L25.6403 19.2928C25.7721 18.888 25.839 18.4648 25.8383 18.039V17.5485C25.8466 17.5387 25.8538 17.5279 25.8597 17.5165C25.8844 17.4709 25.8974 17.4198 25.8974 17.3679C25.8974 17.3161 25.8844 17.265 25.8597 17.2194L25.2518 16.1225C25.1931 15.9849 25.1472 15.8421 25.1147 15.696L26.4568 15.4187C26.5095 15.4076 26.5583 15.383 26.5984 15.3471C26.6384 15.3113 26.6685 15.2656 26.6854 15.2146L26.9718 14.3234C26.9905 14.2639 26.9911 14.2003 26.9733 14.1405C26.6549 13.1031 26.0608 11.4943 25.6464 10.5544C25.6438 10.5468 25.6402 10.5397 25.6357 10.533C25.6079 10.3658 25.5451 10.2064 25.4513 10.0651C25.3576 9.9239 25.2351 9.80405 25.0918 9.71344C24.7972 8.97246 24.6869 8.17103 24.7704 7.37801C24.7704 7.37374 24.7704 7.36948 24.7713 7.36521C24.7736 7.3077 24.7954 7.25268 24.8333 7.20929C24.8711 7.1659 24.9226 7.13674 24.9793 7.12664C25.7098 6.99745 26.494 6.60547 26.5969 5.678L26.6014 5.63839C26.6222 5.4089 26.6068 5.17756 26.5557 4.95285C26.6167 4.94336 26.6768 4.92909 26.7355 4.91019C26.8132 5.04882 26.964 5.46168 26.964 6.55093C26.964 8.11398 27.6038 9.13468 28.198 9.42261C28.3049 9.47641 28.4226 9.50556 28.5423 9.50793C28.6692 9.5094 28.7928 9.46748 28.8927 9.3891C29.0481 9.2657 29.2095 9.00519 29.0892 8.46589C28.9914 7.97389 28.9811 7.46851 29.0587 6.97293C29.1735 6.09974 29.1328 5.21311 28.9384 4.35414C28.7952 3.68839 28.4935 3.26031 28.0441 3.08359C27.453 2.8505 26.8025 3.14605 26.5115 3.31058C26.4626 3.29308 26.4121 3.28033 26.3607 3.2725C26.1336 3.24387 25.9033 3.29099 25.7056 3.40656C25.1337 2.78941 24.4299 2.4375 23.7657 2.4375C22.777 2.4375 21.6573 2.4375 21.1804 3.14285C20.8727 3.59988 20.8925 4.2641 21.2459 5.1675C21.0707 5.49504 20.7676 6.37559 21.2825 8.0468C21.3166 8.18728 21.3862 8.31666 21.4847 8.42255C21.5831 8.52844 21.707 8.60731 21.8446 8.6516C21.934 8.67858 22.027 8.69194 22.1204 8.69121C22.3529 8.68307 22.5814 8.62815 22.7922 8.52973C22.7989 9.04295 22.8371 9.55527 22.9065 10.0638C22.4705 10.3521 22.1058 10.7357 21.84 11.1857C21.5742 11.6357 21.4143 12.1403 21.3724 12.6613L21.2779 14.4772C20.2039 14.6996 20.2237 15.0257 20.2298 15.1399C20.2526 15.5254 20.5589 15.9489 20.9275 16.4242L21.022 16.5461C21.0615 16.5973 21.1094 16.6416 21.1637 16.6771L21.1195 17.5028L19.7316 23.007L19.7225 23.0735C19.6814 24.6427 19.3599 26.3538 18.7338 28.2948L18.4718 28.2217C18.2597 28.1621 18.0379 28.1449 17.8192 28.1711C17.6005 28.1974 17.3891 28.2666 17.1972 28.3747C17.0053 28.4829 16.8366 28.6278 16.7008 28.8013C16.565 28.9747 16.4648 29.1733 16.406 29.3856C16.3951 29.4242 16.3919 29.4646 16.3967 29.5044C16.4014 29.5442 16.414 29.5828 16.4337 29.6177C16.4534 29.6527 16.4797 29.6834 16.5113 29.7081C16.5429 29.7329 16.5791 29.7511 16.6177 29.7619L18.7703 30.3621L20.1399 30.7445C20.1668 30.7511 20.1944 30.7547 20.2222 30.7552C20.2885 30.755 20.3529 30.7331 20.4057 30.693C20.4585 30.6529 20.4968 30.5966 20.5147 30.5327L20.5193 30.516L20.76 29.6507C20.7765 29.5933 20.7754 29.5322 20.7569 29.4755L20.5863 28.9529C20.5831 28.9424 20.5791 28.9322 20.5741 28.9225L22.0046 25.7537C22.0214 25.7174 22.0303 25.6779 22.0305 25.6379L22.0884 23.6955L23.2599 22.4143L24.3827 24.0139C24.4667 24.1344 24.5787 24.2327 24.7089 24.3006C24.8391 24.3685 24.9838 24.404 25.1307 24.4039C25.2585 24.4042 25.3848 24.3766 25.5009 24.3232C26.858 23.7225 28.2766 23.2714 29.7315 22.978L29.7955 23.2431C29.8842 23.6078 30.0928 23.9321 30.3878 24.1642C30.6828 24.3962 31.0472 24.5225 31.4225 24.5228C31.5559 24.5226 31.6889 24.5067 31.8186 24.4755C31.8979 24.4563 31.9663 24.4064 32.009 24.3369C32.0512 24.2681 32.0643 24.1854 32.0456 24.1069ZM25.8391 12.7009C26.0387 13.2463 26.226 13.7886 26.3632 14.2274L26.159 14.8581L24.7194 15.1567C24.7007 15.159 24.6824 15.163 24.6645 15.1689L23.1944 15.472L23.1472 15.3425L22.9918 14.9145L25.2343 14.1512C25.2746 14.1405 25.3124 14.1217 25.3451 14.0958C25.3779 14.0699 25.405 14.0376 25.4248 14.0008C25.4445 13.964 25.4565 13.9236 25.4599 13.882C25.4634 13.8404 25.4583 13.7985 25.4449 13.7589C25.4315 13.7194 25.4101 13.683 25.3821 13.6521C25.3541 13.6212 25.32 13.5963 25.282 13.5791C25.2439 13.5619 25.2028 13.5527 25.161 13.552C25.1193 13.5514 25.0778 13.5593 25.0393 13.5754L24.759 13.6698L24.5442 13.2905L25.8391 12.7009ZM22.0244 8.06965C21.9924 8.05898 21.9178 8.03613 21.866 7.86703C21.3465 6.17602 21.7715 5.46609 21.8126 5.40516C22.6231 5.35184 23.4062 5.3823 23.6865 5.47371C23.4123 6.19582 23.88 6.98801 23.9013 7.02305C23.926 7.06504 23.9606 7.10041 24.0019 7.12615C24.0433 7.15188 24.0903 7.16721 24.1389 7.17082C24.1633 7.17234 24.1892 7.17539 24.2166 7.17539C24.1867 7.21699 24.1688 7.26599 24.1648 7.31707C24.0896 8.06016 24.1615 8.8108 24.3766 9.52605C24.3305 9.52578 24.2846 9.53038 24.2395 9.53977C23.9795 9.58287 23.7254 9.65598 23.4823 9.75762C23.4229 9.26429 23.396 8.7676 23.4016 8.27074C23.4032 8.2435 23.4001 8.2162 23.3925 8.19C23.4869 8.12449 23.5555 8.07117 23.592 8.04223C23.6262 8.01838 23.6551 7.98778 23.6769 7.95233C23.6988 7.91687 23.7132 7.87731 23.7191 7.83609C23.7251 7.79486 23.7226 7.75285 23.7117 7.71265C23.7008 7.67245 23.6817 7.63491 23.6557 7.60235C23.6298 7.5698 23.5974 7.54291 23.5606 7.52336C23.5238 7.50381 23.4834 7.49201 23.4419 7.48869C23.4004 7.48537 23.3586 7.4906 23.3192 7.50405C23.2798 7.51751 23.2435 7.5389 23.2127 7.56691C22.8943 7.8198 22.297 8.15344 22.0244 8.06965ZM20.8712 15.2359C21.1178 15.1484 21.371 15.0806 21.6283 15.0333C21.6466 15.0302 21.6634 15.0272 21.6801 15.0241C21.7594 15.0117 21.8306 14.9684 21.8782 14.9038L22.0457 14.6737L22.3413 14.9114L22.617 15.6686L21.5735 16.1667C21.5637 16.1725 21.5528 16.1761 21.5415 16.1774C21.5302 16.1787 21.5188 16.1777 21.508 16.1743C21.5068 16.1742 21.5057 16.1736 21.5049 16.1728L21.4089 16.0494C21.1986 15.8002 21.0181 15.5271 20.8712 15.2359ZM17.1174 29.2683C17.2134 29.1157 17.3464 28.9898 17.5041 28.9024C17.6618 28.8151 17.839 28.769 18.0193 28.7686C18.1166 28.769 18.2134 28.7823 18.3072 28.8082L18.8343 28.956L20.0576 29.2972V29.2988L20.1491 29.576L20.0104 30.0757L17.1174 29.2683ZM21.5628 23.368C21.5135 23.4218 21.4854 23.4916 21.4836 23.5645L21.4242 25.5587L20.0257 28.6559L19.3218 28.4593C19.9541 26.4865 20.2846 24.7376 20.3303 23.1227L21.0692 20.1947C21.6605 20.8355 22.427 21.2885 23.2736 21.4972L21.5628 23.368ZM25.251 23.7687C25.1868 23.7972 25.1146 23.8024 25.0469 23.7832C24.9793 23.764 24.9205 23.7216 24.8809 23.6636L23.7703 22.0807L24.4893 21.0722C24.5503 21.0189 24.6082 20.9625 24.6645 20.9046C24.695 20.8741 24.7255 20.8421 24.7544 20.8102C24.7803 20.7827 24.8062 20.7523 24.8336 20.7233C24.8397 20.7166 24.8453 20.7095 24.8504 20.702C24.8763 20.673 24.9007 20.6441 24.9235 20.6152C25.0084 20.5123 25.0878 20.405 25.1612 20.2937C25.1871 20.2556 25.2114 20.216 25.2358 20.1764L25.6868 21.9634C25.7068 22.0408 25.7561 22.1073 25.8244 22.1488C25.8927 22.1904 25.9745 22.2036 26.0524 22.1858L27.1173 21.9375L29.4146 21.6755L29.5868 22.3854C28.0956 22.6877 26.6418 23.1516 25.251 23.7687ZM30.3881 23.0984L30.254 22.5484L29.9585 21.3327V21.3312L30.158 21.1164L30.6608 20.9945L31.3707 23.9119C31.1411 23.9003 30.9214 23.8148 30.7443 23.6682C30.5673 23.5216 30.4423 23.3218 30.3881 23.0984Z" fill="#969EA0"/>
</svg>
