<svg width="18" height="19" viewBox="0 0 18 19" fill="none" xmlns="http://www.w3.org/2000/svg">
<g id="Social_Icons" clip-path="url(#clip0_40_3526)">
<g id="_x31__stroke">
<g id="Google">
<path id="Vector" fill-rule="evenodd" clip-rule="evenodd" d="M3.87919 9.50018C3.87919 8.91561 3.97622 8.35507 4.14961 7.82942L1.11633 5.51318C0.525139 6.71342 0.192139 8.06595 0.192139 9.50018C0.192139 10.9333 0.524857 12.2848 1.11506 13.4844L4.14665 11.1636C3.97495 10.6404 3.87919 10.0819 3.87919 9.50018Z" fill="#FBBC05"/>
<path id="Vector_2" fill-rule="evenodd" clip-rule="evenodd" d="M9.20494 4.18184C10.4749 4.18184 11.622 4.63184 12.5233 5.36816L15.1451 2.75C13.5474 1.35908 11.4991 0.5 9.20494 0.5C5.64319 0.5 2.58207 2.53681 1.11633 5.513L4.14947 7.82924C4.84838 5.70777 6.84061 4.18184 9.20494 4.18184Z" fill="#EA4335"/>
<path id="Vector_3" fill-rule="evenodd" clip-rule="evenodd" d="M9.20494 14.8183C6.84075 14.8183 4.84852 13.2924 4.14961 11.1709L1.11633 13.4867C2.58207 16.4633 5.64319 18.5001 9.20494 18.5001C11.4032 18.5001 13.502 17.7195 15.0772 16.257L12.198 14.0312C11.3856 14.5429 10.3626 14.8183 9.20494 14.8183Z" fill="#34A853"/>
<path id="Vector_4" fill-rule="evenodd" clip-rule="evenodd" d="M17.8078 9.50008C17.8078 8.96824 17.7259 8.39547 17.603 7.86377H9.20483V11.341H14.039C13.7972 12.5266 13.1394 13.438 12.1979 14.0312L15.0771 16.257C16.7316 14.7213 17.8078 12.4337 17.8078 9.50008Z" fill="#4285F4"/>
</g>
</g>
</g>
<defs>
<clipPath id="clip0_40_3526">
<rect width="18" height="18" fill="white" transform="translate(0 0.5)"/>
</clipPath>
</defs>
</svg>
